<svg width="900" height="600" viewBox="0 0 900 600" fill="none" xmlns="http://www.w3.org/2000/svg" role="img" aria-labelledby="title desc">
  <title id="title">Policy Brief 10 Isu Strategis 2</title>
  <desc id="desc">Ringkasan isu strategis dan tren sosial media</desc>
  <rect width="900" height="600" rx="48" fill="#FFF9F0"/>
  <rect x="56" y="50" width="788" height="500" rx="40" fill="#FFFFFF"/>
  <rect x="102" y="104" width="696" height="174" rx="30" fill="#F59E0B"/>
  <text x="140" y="172" fill="#FFFFFF" font-family="Arial, Helvetica, sans-serif" font-size="56" font-weight="700">Suara Warga</text>
  <text x="140" y="226" fill="#FFF7ED" font-family="Arial, Helvetica, sans-serif" font-size="30">Facebook</text>
  <circle cx="720" cy="188" r="86" fill="#FFF4E5"/>
  <path d="M720 110C767 110 806 148 806 194C806 240 767 278 720 278C673 278 634 240 634 194C634 148 673 110 720 110Z" fill="#F59E0B" opacity="0.2"/>
  <path d="M700 170C718 154 744 154 762 170C780 186 780 214 762 230C744 246 718 246 700 230C682 214 682 186 700 170Z" fill="#FFFFFF"/>
  <rect x="110" y="330" width="280" height="130" rx="28" fill="#FEF3C7"/>
  <circle cx="210" cy="395" r="48" fill="#F59E0B"/>
  <path d="M188 390H232" stroke="#FFFFFF" stroke-width="14" stroke-linecap="round"/>
  <path d="M210 368V422" stroke="#FFFFFF" stroke-width="14" stroke-linecap="round"/>
  <rect x="430" y="330" width="360" height="130" rx="28" fill="#ECFDF5"/>
  <path d="M482 418C527 360 602 336 668 352C730 368 772 416 783 470" stroke="#10B981" stroke-width="18" stroke-linecap="round"/>
  <circle cx="506" cy="392" r="28" fill="#10B981"/>
  <text x="482" y="396" fill="#FFFFFF" font-family="Arial, Helvetica, sans-serif" font-size="20" font-weight="700">+</text>
  <text x="546" y="378" fill="#111827" font-family="Arial, Helvetica, sans-serif" font-size="30" font-weight="700">Trend</text>
  <text x="546" y="420" fill="#10B981" font-family="Arial, Helvetica, sans-serif" font-size="24">Positif</text>
</svg>
